<?xml version="1.0" encoding="UTF-8"?><svg id="Layer_1" xmlns="http://www.w3.org/2000/svg" viewBox="0 0 1098 434"><defs><style>.cls-1{fill:#d01f22;}</style></defs><rect class="cls-1" x="55" y="196" width="80" height="42"/><rect class="cls-1" x="368" y="196" width="80" height="42"/><path class="cls-1" d="M252.11,64c-84.5,0-153,68.5-153,153s68.5,153,153,153,153-68.5,153-153-68.5-153-153-153ZM252.11,100.5c54.83,0,100.81,37.89,113.2,88.91l-112.8-55.52-.3.56-.51-.96-112.68,55.47c12.56-50.79,58.42-88.45,113.09-88.45ZM325.87,217.85l-74.17,36.51-74.17-36.51,74.17-36.51,74.17,36.51ZM252.11,333.5c-53.97,0-99.36-36.7-112.6-86.51l112.19,55.22.51-.96.3.56,112.31-55.28c-13.07,50.04-58.58,86.97-112.72,86.97Z"/><path d="M493,146.82v-47.88h147v47.88h-44.35v168.49h-58.93v-168.49h-43.72Z"/><path d="M732,98.94l21.71,128.19h.58l21.71-128.19h77v216.37h-50.37v-161.22h-.58l-28.66,161.22h-38.79l-28.66-161.22h-.58v161.22h-50.37V98.94h77Z"/><path d="M970.62,98.94c22.44,0,38.99,4.9,49.66,14.7,10.66,9.8,15.99,22.88,15.99,39.24,0,5.66-.73,11.17-2.19,16.52-1.46,5.36-3.7,10.2-6.73,14.55-3.03,4.35-6.9,8.03-11.61,11.06-4.71,3.03-10.44,5.15-17.17,6.36v.61c7.85.61,14.59,2.48,20.2,5.61,5.61,3.13,10.21,7.02,13.8,11.67,3.59,4.65,6.23,9.75,7.91,15.3,1.68,5.56,2.53,11.17,2.53,16.82,0,9.29-1.35,17.88-4.04,25.76-2.69,7.88-6.9,14.65-12.62,20.3-5.72,5.66-13.19,10.05-22.39,13.18-9.21,3.13-20.31,4.7-33.33,4.7h-94.6V98.94h94.6ZM953.79,183.79c6.51,0,11.45-2.17,14.81-6.52,3.37-4.34,5.05-9.44,5.05-15.3s-1.68-11.31-5.05-15.76c-3.37-4.44-8.31-6.67-14.81-6.67l-20.79-.05-1,44.29h21.79ZM956.14,274.71c5.83,0,10.99-2.17,15.49-6.52,4.49-4.34,6.73-11.06,6.73-20.15,0-8.49-2.25-14.95-6.73-19.39-4.49-4.44-9.65-6.67-15.49-6.67l-25.14-.48v53.21h25.14Z"/></svg>